<svg xmlns="http://www.w3.org/2000/svg" id="a" viewBox="34.59 29.98 813 237.58"><defs><style>.b{fill:#020202;stroke-width:0px;}</style></defs><path class="b" d="M64.41,30.3v210.43h124.27v26.51H34.59V30.3h29.82Z"/><path class="b" d="M183.37,30.3l68.6,115.99h.66l68.93-115.99h32.14l-86.49,139.85v97.1h-29.82v-97.1L151.23,30.3h32.14Z"/><path class="b" d="M372.59,30.3h36.45l118.3,195.19h.66V30.3h29.82v236.94h-36.45l-118.3-194.52h-.66v194.52h-29.82V30.3Z"/><path class="b" d="M595.61,30.3h36.45l118.3,195.19h.66V30.3h29.82v236.94h-36.45l-118.3-194.52h-.66v194.52h-29.82V30.3Z"/><path class="b" d="M813.96,242.15c-1.36,2.01-2.04,4.52-2.04,7.53s.77,5.28,2.31,7.24c1.54,1.96,3.51,3.41,5.89,4.36,2.39.95,4.87,1.43,7.45,1.43,4.3,0,8-.98,11.08-2.93,3.09-1.95,4.63-5.14,4.63-9.55,0-2.3-.51-4.39-1.53-6.3-1.02-1.9-2.47-3.42-4.33-4.55-1.86-1.13-3.96-1.69-6.3-1.69v12.54h-4.3v-17.38h20.02v3.23l-5.43,1.61v.11c2.08,1.51,3.63,3.24,4.65,5.19,1.02,1.96,1.53,4.37,1.53,7.24,0,3.66-.85,6.79-2.56,9.39-1.7,2.6-4.06,4.57-7.08,5.92s-6.47,2.02-10.38,2.02-7.27-.75-10.3-2.26c-3.03-1.51-5.4-3.61-7.1-6.32-1.7-2.71-2.56-5.8-2.56-9.28,0-4.7,1.1-8.39,3.31-11.08s5.23-4.39,9.07-5.11v4.84c-2.65.54-4.66,1.81-6.03,3.82Z"/><path class="b" d="M808.36,226.6v-15.6c0-3.84.98-6.91,2.93-9.23,1.96-2.31,4.62-3.47,7.99-3.47,2.69,0,4.83.6,6.43,1.8,1.6,1.2,2.68,2.9,3.26,5.08h.11c.36-1.76,1.24-3.1,2.64-4.04,1.4-.93,2.94-1.54,4.63-1.83,1.69-.29,3.66-.5,5.92-.65,1.47-.11,2.52-.22,3.15-.32.63-.11,1-.3,1.1-.59h.32v5.22c-.22.22-.64.36-1.26.43-.63.07-1.5.11-2.61.11-2.3.07-4.22.24-5.78.51-1.56.27-2.93.92-4.12,1.96-1.18,1.04-1.78,2.62-1.78,4.74v11.03h15.55v4.84h-38.47ZM826.98,221.76v-9.63c0-1.69-.15-3.17-.46-4.44-.3-1.27-.98-2.35-2.02-3.23-1.04-.88-2.6-1.32-4.68-1.32s-3.64.44-4.68,1.32c-1.04.88-1.71,1.96-2.02,3.23-.3,1.27-.46,2.75-.46,4.44v9.63h14.31Z"/><path class="b" d="M843.9,167.25c2.46,2.44,3.69,6.13,3.69,11.08s-1.23,8.65-3.69,11.08c-2.46,2.44-5.75,3.66-9.87,3.66h-25.67v-4.84h25.67c3.12,0,5.44-.82,6.97-2.45,1.53-1.63,2.29-4.12,2.29-7.45s-.76-5.82-2.29-7.45c-1.52-1.63-3.85-2.45-6.97-2.45h-25.67v-4.84h25.67c4.13,0,7.42,1.22,9.87,3.66ZM797.63,184.34c-.52-.48-.78-1.14-.78-1.96s.26-1.48.78-1.96c.52-.48,1.16-.73,1.91-.73s1.34.24,1.86.73c.52.48.78,1.14.78,1.96s-.26,1.48-.78,1.96c-.52.48-1.14.73-1.86.73s-1.39-.24-1.91-.73ZM797.63,176.27c-.52-.48-.78-1.14-.78-1.96s.26-1.48.78-1.96c.52-.48,1.16-.73,1.91-.73s1.34.24,1.86.73c.52.48.78,1.14.78,1.96s-.26,1.48-.78,1.96c-.52.48-1.14.73-1.86.73s-1.39-.24-1.91-.73Z"/><path class="b" d="M812.67,147.08v12.81h-4.3v-30.46h4.3v12.81h34.17v4.84h-34.17Z"/><path class="b" d="M812.67,113.88v12.81h-4.3v-30.46h4.3v12.81h34.17v4.84h-34.17Z"/><path class="b" d="M824.77,67.28h4.3v19.75h13.45v-22.98h4.3v27.82h-38.47v-27.17h4.3v22.33h12.11v-19.75Z"/><path class="b" d="M808.36,58.83v-15.6c0-3.84.98-6.91,2.93-9.23,1.96-2.31,4.62-3.47,7.99-3.47,2.69,0,4.83.6,6.43,1.8,1.6,1.2,2.68,2.9,3.26,5.08h.11c.36-1.76,1.24-3.1,2.64-4.04,1.4-.93,2.94-1.54,4.63-1.83,1.69-.29,3.66-.5,5.92-.65,1.47-.11,2.52-.22,3.15-.32.63-.11,1-.3,1.1-.59h.32v5.22c-.22.22-.64.36-1.26.43-.63.07-1.5.11-2.61.11-2.3.07-4.22.24-5.78.51-1.56.27-2.93.92-4.12,1.96-1.18,1.04-1.78,2.62-1.78,4.74v11.03h15.55v4.84h-38.47ZM826.98,53.99v-9.63c0-1.69-.15-3.17-.46-4.44-.3-1.27-.98-2.35-2.02-3.23-1.04-.88-2.6-1.32-4.68-1.32s-3.64.44-4.68,1.32c-1.04.88-1.71,1.96-2.02,3.23-.3,1.27-.46,2.75-.46,4.44v9.63h14.31Z"/></svg>