<?xml version="1.0" encoding="UTF-8" standalone="no"?>
<!-- Created with Inkscape (http://www.inkscape.org/) -->

<svg
   width="144.43005mm"
   height="42.206272mm"
   viewBox="0 0 144.43005 42.206272"
   version="1.1"
   id="svg5"
   xml:space="preserve"
   xmlns:inkscape="http://www.inkscape.org/namespaces/inkscape"
   xmlns:sodipodi="http://sodipodi.sourceforge.net/DTD/sodipodi-0.dtd"
   xmlns="http://www.w3.org/2000/svg"
   xmlns:svg="http://www.w3.org/2000/svg"><sodipodi:namedview
     id="namedview7"
     pagecolor="#ffffff"
     bordercolor="#000000"
     borderopacity="0.25"
     inkscape:showpageshadow="2"
     inkscape:pageopacity="0.0"
     inkscape:pagecheckerboard="0"
     inkscape:deskcolor="#d1d1d1"
     inkscape:document-units="mm"
     showgrid="false" /><defs
     id="defs2"><style
       id="style132">.b{fill:#020202;stroke-width:0px;}</style></defs><g
     inkscape:label="Ebene 1"
     inkscape:groupmode="layer"
     id="layer1"
     transform="translate(-36.538705,-53.407572)"><g
       id="g173"
       transform="matrix(0.17765076,0,0,0.17765076,30.393764,48.081602)"
       style="fill:#ffffff"><path
         class="b"
         d="m 64.41,30.3 v 210.43 h 124.27 v 26.51 H 34.59 V 30.3 Z"
         id="path136"
         style="fill:#ffffff" /><path
         class="b"
         d="m 183.37,30.3 68.6,115.99 h 0.66 L 321.56,30.3 h 32.14 l -86.49,139.85 v 97.1 h -29.82 v -97.1 L 151.23,30.3 Z"
         id="path138"
         style="fill:#ffffff" /><path
         class="b"
         d="m 372.59,30.3 h 36.45 l 118.3,195.19 H 528 V 30.3 h 29.82 V 267.24 H 521.37 L 403.07,72.72 h -0.66 v 194.52 h -29.82 z"
         id="path140"
         style="fill:#ffffff" /><path
         class="b"
         d="m 595.61,30.3 h 36.45 l 118.3,195.19 h 0.66 V 30.3 h 29.82 V 267.24 H 744.39 L 626.09,72.72 h -0.66 v 194.52 h -29.82 z"
         id="path142"
         style="fill:#ffffff" /><path
         class="b"
         d="m 813.96,242.15 c -1.36,2.01 -2.04,4.52 -2.04,7.53 0,3.01 0.77,5.28 2.31,7.24 1.54,1.96 3.51,3.41 5.89,4.36 2.39,0.95 4.87,1.43 7.45,1.43 4.3,0 8,-0.98 11.08,-2.93 3.09,-1.95 4.63,-5.14 4.63,-9.55 0,-2.3 -0.51,-4.39 -1.53,-6.3 -1.02,-1.9 -2.47,-3.42 -4.33,-4.55 -1.86,-1.13 -3.96,-1.69 -6.3,-1.69 v 12.54 h -4.3 v -17.38 h 20.02 v 3.23 l -5.43,1.61 v 0.11 c 2.08,1.51 3.63,3.24 4.65,5.19 1.02,1.96 1.53,4.37 1.53,7.24 0,3.66 -0.85,6.79 -2.56,9.39 -1.7,2.6 -4.06,4.57 -7.08,5.92 -3.02,1.35 -6.47,2.02 -10.38,2.02 -3.91,0 -7.27,-0.75 -10.3,-2.26 -3.03,-1.51 -5.4,-3.61 -7.1,-6.32 -1.7,-2.71 -2.56,-5.8 -2.56,-9.28 0,-4.7 1.1,-8.39 3.31,-11.08 2.21,-2.69 5.23,-4.39 9.07,-5.11 v 4.84 c -2.65,0.54 -4.66,1.81 -6.03,3.82 z"
         id="path144"
         style="fill:#ffffff" /><path
         class="b"
         d="M 808.36,226.6 V 211 c 0,-3.84 0.98,-6.91 2.93,-9.23 1.96,-2.31 4.62,-3.47 7.99,-3.47 2.69,0 4.83,0.6 6.43,1.8 1.6,1.2 2.68,2.9 3.26,5.08 h 0.11 c 0.36,-1.76 1.24,-3.1 2.64,-4.04 1.4,-0.93 2.94,-1.54 4.63,-1.83 1.69,-0.29 3.66,-0.5 5.92,-0.65 1.47,-0.11 2.52,-0.22 3.15,-0.32 0.63,-0.11 1,-0.3 1.1,-0.59 h 0.32 v 5.22 c -0.22,0.22 -0.64,0.36 -1.26,0.43 -0.63,0.07 -1.5,0.11 -2.61,0.11 -2.3,0.07 -4.22,0.24 -5.78,0.51 -1.56,0.27 -2.93,0.92 -4.12,1.96 -1.18,1.04 -1.78,2.62 -1.78,4.74 v 11.03 h 15.55 v 4.84 h -38.47 z m 18.62,-4.84 v -9.63 c 0,-1.69 -0.15,-3.17 -0.46,-4.44 -0.3,-1.27 -0.98,-2.35 -2.02,-3.23 -1.04,-0.88 -2.6,-1.32 -4.68,-1.32 -2.08,0 -3.64,0.44 -4.68,1.32 -1.04,0.88 -1.71,1.96 -2.02,3.23 -0.3,1.27 -0.46,2.75 -0.46,4.44 v 9.63 h 14.31 z"
         id="path146"
         style="fill:#ffffff" /><path
         class="b"
         d="m 843.9,167.25 c 2.46,2.44 3.69,6.13 3.69,11.08 0,4.95 -1.23,8.65 -3.69,11.08 -2.46,2.44 -5.75,3.66 -9.87,3.66 h -25.67 v -4.84 h 25.67 c 3.12,0 5.44,-0.82 6.97,-2.45 1.53,-1.63 2.29,-4.12 2.29,-7.45 0,-3.33 -0.76,-5.82 -2.29,-7.45 -1.52,-1.63 -3.85,-2.45 -6.97,-2.45 h -25.67 v -4.84 h 25.67 c 4.13,0 7.42,1.22 9.87,3.66 z m -46.27,17.09 c -0.52,-0.48 -0.78,-1.14 -0.78,-1.96 0,-0.82 0.26,-1.48 0.78,-1.96 0.52,-0.48 1.16,-0.73 1.91,-0.73 0.75,0 1.34,0.24 1.86,0.73 0.52,0.48 0.78,1.14 0.78,1.96 0,0.82 -0.26,1.48 -0.78,1.96 -0.52,0.48 -1.14,0.73 -1.86,0.73 -0.72,0 -1.39,-0.24 -1.91,-0.73 z m 0,-8.07 c -0.52,-0.48 -0.78,-1.14 -0.78,-1.96 0,-0.82 0.26,-1.48 0.78,-1.96 0.52,-0.48 1.16,-0.73 1.91,-0.73 0.75,0 1.34,0.24 1.86,0.73 0.52,0.48 0.78,1.14 0.78,1.96 0,0.82 -0.26,1.48 -0.78,1.96 -0.52,0.48 -1.14,0.73 -1.86,0.73 -0.72,0 -1.39,-0.24 -1.91,-0.73 z"
         id="path148"
         style="fill:#ffffff" /><path
         class="b"
         d="m 812.67,147.08 v 12.81 h -4.3 v -30.46 h 4.3 v 12.81 h 34.17 v 4.84 z"
         id="path150"
         style="fill:#ffffff" /><path
         class="b"
         d="m 812.67,113.88 v 12.81 h -4.3 V 96.23 h 4.3 v 12.81 h 34.17 v 4.84 z"
         id="path152"
         style="fill:#ffffff" /><path
         class="b"
         d="m 824.77,67.28 h 4.3 v 19.75 h 13.45 V 64.05 h 4.3 V 91.87 H 808.35 V 64.7 h 4.3 v 22.33 h 12.11 V 67.28 Z"
         id="path154"
         style="fill:#ffffff" /><path
         class="b"
         d="m 808.36,58.83 v -15.6 c 0,-3.84 0.98,-6.91 2.93,-9.23 1.96,-2.31 4.62,-3.47 7.99,-3.47 2.69,0 4.83,0.6 6.43,1.8 1.6,1.2 2.68,2.9 3.26,5.08 h 0.11 c 0.36,-1.76 1.24,-3.1 2.64,-4.04 1.4,-0.93 2.94,-1.54 4.63,-1.83 1.69,-0.29 3.66,-0.5 5.92,-0.65 1.47,-0.11 2.52,-0.22 3.15,-0.32 0.63,-0.11 1,-0.3 1.1,-0.59 h 0.32 v 5.22 c -0.22,0.22 -0.64,0.36 -1.26,0.43 -0.63,0.07 -1.5,0.11 -2.61,0.11 -2.3,0.07 -4.22,0.24 -5.78,0.51 -1.56,0.27 -2.93,0.92 -4.12,1.96 -1.18,1.04 -1.78,2.62 -1.78,4.74 v 11.03 h 15.55 v 4.84 h -38.47 z m 18.62,-4.84 v -9.63 c 0,-1.69 -0.15,-3.17 -0.46,-4.44 -0.3,-1.27 -0.98,-2.35 -2.02,-3.23 -1.04,-0.88 -2.6,-1.32 -4.68,-1.32 -2.08,0 -3.64,0.44 -4.68,1.32 -1.04,0.88 -1.71,1.96 -2.02,3.23 -0.3,1.27 -0.46,2.75 -0.46,4.44 v 9.63 h 14.31 z"
         id="path156"
         style="fill:#ffffff" /></g></g></svg>
